<svg width="1728" height="32255" viewBox="0 0 1728 32255" fill="none" xmlns="http://www.w3.org/2000/svg">
<g clip-path="url(#clip0_245_157)">
<path d="M1728 12077.8C1100.07 11710.3 567.37 11755.9 0 12077.8V21841H1728V12077.8Z" fill="url(#paint0_linear_245_157)" fill-opacity="0.6"/>
<path d="M0 21879C282.851 21323.9 1146.86 21871.7 1728 21468" stroke="url(#paint1_linear_245_157)" stroke-width="70"/>
<path d="M1728 21468C1146.86 21946.1 282.85 21297.3 0 21954.8L0.000782649 32066.5L1728 32086L1728 23167.5V21468Z" fill="url(#paint2_linear_245_157)" fill-opacity="0.7" stroke="url(#paint3_linear_245_157)" stroke-opacity="0.8" stroke-width="70"/>
<g filter="url(#filter0_d_245_157)">
<path d="M1728 29416.4C849.314 29341.8 419.678 29293.5 0 29170V30360.2C570.225 30322.3 973.873 30333.8 1728 30539V29416.4Z" fill="black"/>
</g>
<g filter="url(#filter1_d_245_157)">
<path d="M1735.5 716.5C774.062 573.688 328.674 529.061 0 244V2683.5C572.7 2623.63 978.1 2549.27 1735.5 2874V716.5Z" fill="black"/>
</g>
</g>
<defs>
<filter id="filter0_d_245_157" x="-72" y="29110" width="1848" height="1489" filterUnits="userSpaceOnUse" color-interpolation-filters="sRGB">
<feFlood flood-opacity="0" result="BackgroundImageFix"/>
<feColorMatrix in="SourceAlpha" type="matrix" values="0 0 0 0 0 0 0 0 0 0 0 0 0 0 0 0 0 0 127 0" result="hardAlpha"/>
<feOffset dx="-12"/>
<feGaussianBlur stdDeviation="30"/>
<feComposite in2="hardAlpha" operator="out"/>
<feColorMatrix type="matrix" values="0 0 0 0 0.796078 0 0 0 0 0.607843 0 0 0 0 1 0 0 0 1 0"/>
<feBlend mode="normal" in2="BackgroundImageFix" result="effect1_dropShadow_245_157"/>
<feBlend mode="normal" in="SourceGraphic" in2="effect1_dropShadow_245_157" result="shape"/>
</filter>
<filter id="filter1_d_245_157" x="-140" y="184" width="1875.5" height="2750" filterUnits="userSpaceOnUse" color-interpolation-filters="sRGB">
<feFlood flood-opacity="0" result="BackgroundImageFix"/>
<feColorMatrix in="SourceAlpha" type="matrix" values="0 0 0 0 0 0 0 0 0 0 0 0 0 0 0 0 0 0 127 0" result="hardAlpha"/>
<feOffset dx="-80"/>
<feGaussianBlur stdDeviation="30"/>
<feComposite in2="hardAlpha" operator="out"/>
<feColorMatrix type="matrix" values="0 0 0 0 0.781944 0 0 0 0 0.781944 0 0 0 0 0.781944 0 0 0 0.48 0"/>
<feBlend mode="normal" in2="BackgroundImageFix" result="effect1_dropShadow_245_157"/>
<feBlend mode="normal" in="SourceGraphic" in2="effect1_dropShadow_245_157" result="shape"/>
</filter>
<linearGradient id="paint0_linear_245_157" x1="826.6" y1="11732.2" x2="875.071" y2="22614.9" gradientUnits="userSpaceOnUse">
<stop stop-color="#3D46F2" stop-opacity="0.29"/>
<stop offset="0.975808" stop-color="#FDB777" stop-opacity="0"/>
<stop offset="0.9849" stop-color="#EF831F" stop-opacity="0.17"/>
</linearGradient>
<linearGradient id="paint1_linear_245_157" x1="864" y1="21879" x2="864" y2="21468" gradientUnits="userSpaceOnUse">
<stop stop-color="#828282" stop-opacity="0"/>
<stop offset="0.455" stop-color="#7C7C7C" stop-opacity="0.06"/>
<stop offset="1" stop-color="#1C1C1C"/>
</linearGradient>
<linearGradient id="paint2_linear_245_157" x1="864.001" y1="21468" x2="556.948" y2="28097.6" gradientUnits="userSpaceOnUse">
<stop stop-color="#355ADF" stop-opacity="0.55"/>
<stop offset="1" stop-opacity="0.54"/>
</linearGradient>
<linearGradient id="paint3_linear_245_157" x1="864.001" y1="21954.8" x2="864.001" y2="21468" gradientUnits="userSpaceOnUse">
<stop offset="0.45" stop-color="#828282" stop-opacity="0"/>
<stop offset="1" stop-color="#3D46F2"/>
</linearGradient>
<clipPath id="clip0_245_157">
<rect width="1728" height="32255" fill="white"/>
</clipPath>
</defs>
</svg>
